# Blender v2.77 (sub 0) OBJ File: ''
# www.blender.org
mtllib plan-2.mtl
o Cube
v 53.106201 0.048769 -62.886353
v 53.106201 0.048769 62.573318
v -53.001076 0.048769 62.573303
v -53.001045 0.048769 -62.886375
v 53.106224 0.012086 -62.886322
v 53.106171 0.012086 62.573353
v -53.001087 0.012086 62.573292
v -53.001064 0.012086 -62.886353
vn 0.000000 -1.000000 -0.000000
vn 0.000000 1.000000 0.000000
vn -1.000000 0.000200 -0.000000
vn 0.000000 -0.000300 -1.000000
vn 1.000000 -0.000400 0.000000
vn -0.000000 0.000700 1.000000
usemtl Material
s off
f 1//1 2//1 3//1 4//1
f 5//2 8//2 7//2 6//2
f 1//3 5//3 6//3 2//3
f 2//4 6//4 7//4 3//4
f 3//5 7//5 8//5 4//5
f 5//6 1//6 4//6 8//6
