# Blender v2.77 (sub 0) OBJ File: ''
# www.blender.org
mtllib bomb.mtl
o Inst3D29_RefRep.223
v 2.743488 0.473778 -1.684650
v 3.391008 0.532368 0.307344
v 0.000558 -0.004368 0.323130
v -3.225168 23.528448 -2.713689
v -3.986664 23.597351 -0.371065
v 0.000558 23.597351 -0.371065
v 3.226290 23.666256 1.971551
v 3.987786 23.597351 -0.371065
v 3.226290 23.528448 -2.713689
v -2.742366 4.764545 8.628378
v 3.225060 7.865376 10.019946
v -3.223938 7.865376 10.019946
v 2.743488 4.764545 8.628378
v 8.442426 7.393279 -6.030486
v 3.391008 10.655802 -10.429668
v 8.876856 10.772982 -6.445680
v -8.441304 7.393279 -6.030486
v -10.434174 7.573602 0.100236
v -10.971138 10.962588 0.000558
v 3.391008 11.269374 10.430783
v -3.389892 11.269374 10.430783
v 3.225060 14.059802 -10.018835
v 8.442426 14.171250 -6.229847
v 3.225060 14.643342 9.820589
v -3.223938 14.643342 9.820589
v -8.441304 14.171250 -6.229847
v -8.875740 17.408825 -0.189047
v -7.180512 17.255430 -5.404157
v 7.181634 17.255430 -5.404157
v 2.743488 17.160629 -8.627261
v 1.993416 19.654728 -6.391131
v -6.448464 19.835052 -0.260411
v -5.216808 19.723602 -4.049391
v 5.217924 19.723602 -4.049391
v 1.232682 20.997990 -4.088345
v -3.986664 21.109482 -0.297893
v -3.225168 21.040577 -2.640515
v 1.993416 1.909800 -5.869200
v 1.048266 0.437562 -2.915760
v -5.216808 1.978680 -3.527460
v -7.180512 4.362960 -5.024952
v -2.742372 4.268155 -8.248056
v -1.231560 20.997990 -4.088345
v -1.992294 1.909800 -5.869200
v 2.743488 4.268155 -8.248056
v -3.223938 7.281835 -9.819474
v 3.225060 7.281835 -9.819474
v -3.389892 10.655802 -10.429668
v -2.742366 0.590958 2.299338
v -1.047144 0.627168 3.530448
v -5.216808 2.201568 4.050510
v -1.992294 2.270448 6.392250
v -7.180512 4.669746 5.405274
v -8.441304 7.753925 6.230965
v -8.875740 11.152194 6.446791
v -8.441304 14.531898 6.031602
v -2.742366 17.657022 8.249171
v -1.992294 20.015379 5.870311
v -5.216808 19.946495 3.528579
v -6.448464 2.090124 0.261522
v -8.875740 4.516350 0.190164
v -7.180512 17.562216 5.026063
v -10.434174 14.351574 -0.099125
v 1.048266 0.627168 3.530448
v 2.743488 0.590958 2.299338
v 6.449586 2.090124 0.261522
v 5.217924 2.201568 4.050510
v 7.181634 4.669746 5.405274
v 8.876856 4.516350 0.190164
v 10.972260 10.962588 0.000558
v 10.435290 14.351574 -0.099125
v 8.442426 14.531898 6.031602
v 8.876856 17.408825 -0.189047
v 7.181634 17.562216 5.026063
v 5.217924 19.946495 3.528579
v 6.449586 19.835052 -0.260411
v 8.442426 7.753925 6.230965
v 8.876856 11.152194 6.446791
v 2.743488 17.657022 8.249171
v 7.181634 4.362960 -5.024952
v 10.435290 7.573602 0.100236
v -1.231560 21.220968 3.492553
v -3.225168 23.666256 1.971551
v -3.225168 21.178387 2.044725
v -1.231560 23.485867 -4.161519
v 1.737498 29.036228 -1.191595
v 2.173998 28.308323 -0.541507
v 2.340726 27.993330 -1.549459
v -0.916530 23.563099 -1.030609
v 0.337524 24.807655 -1.455763
v 0.278766 23.551682 -1.418815
v 1.017492 23.581573 -0.402481
v 1.071750 24.756157 -0.437029
v 0.337524 24.867439 0.576917
v -0.850482 24.987736 0.184835
v -0.431220 26.401560 -1.114099
v -0.850482 24.950790 -1.071427
v 0.693540 25.985785 -1.490413
v 1.388676 25.765770 -0.466723
v 0.693540 26.045574 0.542267
v 1.333488 27.178831 0.508931
v 0.504558 28.028198 0.095405
v 1.845786 26.616924 -0.491755
v 2.340726 28.053114 0.483215
v 1.737504 29.073181 0.064667
v 0.504558 27.991247 -1.160857
v 1.333488 27.119038 -1.523743
v 2.713536 27.385746 -0.514369
v 1.232682 23.485867 -4.161519
v -1.231560 23.708843 3.419377
v 5.217924 1.978680 -3.527460
v 1.993416 2.270448 6.392250
v -8.875740 10.772982 -6.445680
v 3.226290 21.040577 -2.640515
v 1.232682 21.220968 3.492553
v -1.047144 0.437562 -2.915760
v -2.742366 0.473778 -1.684650
v -2.742372 17.160629 -8.627261
v -1.992294 19.654728 -6.391131
v -3.223938 14.059802 -10.018835
v -3.389892 0.532368 0.307344
v 3.987786 21.109482 -0.297893
v 3.226290 21.178387 2.044725
v 1.993416 20.015379 5.870311
v 1.232682 23.708843 3.419377
v 0.278766 23.611465 0.613859
v -0.431220 26.438513 0.142163
v -0.916530 23.600046 0.225653
vt 0.6110 0.0280
vt 0.6390 0.0280
vt 0.4900 0.0060
vt 0.0240 0.7840
vt 0.1240 0.7840
vt 0.0740 0.9840
vt 0.0240 0.7840
vt 0.1240 0.7840
vt 0.0240 0.7840
vt 0.1240 0.7840
vt 0.3700 0.1910
vt 0.6320 0.3150
vt 0.3490 0.3150
vt 0.6110 0.1910
vt 0.8610 0.3150
vt 0.6390 0.4540
vt 0.8800 0.4540
vt 0.1200 0.3150
vt 0.0320 0.3150
vt 0.0080 0.4540
vt 0.6390 0.4540
vt 0.3410 0.4540
vt 0.6320 0.5920
vt 0.8610 0.5920
vt 0.6320 0.5920
vt 0.3490 0.5920
vt 0.1200 0.5920
vt 0.1010 0.7170
vt 0.1750 0.7170
vt 0.8060 0.7170
vt 0.6110 0.7170
vt 0.5780 0.8160
vt 0.2070 0.8160
vt 0.2610 0.8160
vt 0.7200 0.8160
vt 0.5450 0.8680
vt 0.3150 0.8680
vt 0.3490 0.8680
vt 0.5780 0.0910
vt 0.5360 0.0280
vt 0.2610 0.0910
vt 0.1750 0.1910
vt 0.3700 0.1910
vt 0.4360 0.8680
vt 0.4030 0.0910
vt 0.6110 0.1910
vt 0.3490 0.3150
vt 0.6320 0.3150
vt 0.3410 0.4540
vt 0.3700 0.0280
vt 0.4440 0.0280
vt 0.2610 0.0910
vt 0.4030 0.0910
vt 0.1750 0.1910
vt 0.1200 0.3150
vt 0.1010 0.4540
vt 0.1200 0.5920
vt 0.3700 0.7170
vt 0.4030 0.8160
vt 0.2610 0.8160
vt 0.2070 0.0910
vt 0.1010 0.1910
vt 0.1750 0.7170
vt 0.0320 0.5920
vt 0.5360 0.0280
vt 0.6110 0.0280
vt 0.7740 0.0910
vt 0.7200 0.0910
vt 0.8060 0.1910
vt 0.8800 0.1910
vt 0.9720 0.4540
vt 0.9490 0.5920
vt 0.8610 0.5920
vt 0.8800 0.7170
vt 0.8060 0.7170
vt 0.7200 0.8160
vt 0.7740 0.8160
vt 0.8610 0.3150
vt 0.8800 0.4540
vt 0.6110 0.7170
vt 0.8060 0.1910
vt 0.9490 0.3150
vt 0.4360 0.8680
vt 0.3490 0.9700
vt 0.3490 0.8680
vt 0.3150 0.9700
vt 0.3490 0.9700
vt 0.4360 0.9700
vt 0.8540 0.9950
vt 0.9170 0.9950
vt 0.9220 0.9960
vt 0.8540 0.7500
vt 0.9220 0.8100
vt 0.9220 0.7500
vt 0.9950 0.7500
vt 0.9950 0.8100
vt 0.9220 0.8100
vt 0.8540 0.8100
vt 0.8540 0.8670
vt 0.8540 0.8100
vt 0.9220 0.8670
vt 0.9950 0.8670
vt 0.9220 0.8670
vt 0.9220 0.9230
vt 0.8540 0.9230
vt 0.9950 0.9230
vt 0.9220 0.9960
vt 0.8540 0.9950
vt 0.8540 0.9230
vt 0.9220 0.9230
vt 0.9950 0.9950
vt 0.0240 0.7840
vt 0.1240 0.7840
vt 0.0240 0.7840
vt 0.1240 0.7840
vt 0.0240 0.7840
vt 0.1240 0.7840
vt 0.0240 0.7840
vt 0.1240 0.7840
vt 0.7200 0.0910
vt 0.5780 0.0910
vt 0.1010 0.4540
vt 0.6320 0.8680
vt 0.5450 0.8680
vt 0.4440 0.0280
vt 0.3700 0.0280
vt 0.3700 0.7170
vt 0.4030 0.8160
vt 0.3490 0.5920
vt 0.3410 0.0280
vt 0.6660 0.8680
vt 0.6320 0.8680
vt 0.5780 0.8160
vt 0.5450 0.9700
vt 0.6320 0.9700
vt 0.6660 0.9700
vt 0.5450 0.9700
vt 0.4360 0.9700
vt 0.9220 0.7500
vt 0.8540 0.8670
vt 0.0240 0.7840
vt 0.1240 0.7840
vt 0.0240 0.7840
vt 0.1240 0.7840
vt 0.0240 0.7840
vt 0.1240 0.7840
vt 0.6320 0.9700
vt 0.8540 0.7500
vn 0.2724 -0.9470 -0.1701
vn 0.3367 -0.9412 0.0277
vn -0.0000 -0.9996 0.0294
vn -0.6191 0.6302 -0.4685
vn -0.7653 0.6434 -0.0189
vn -0.0000 0.9996 -0.0294
vn 0.6191 0.6567 0.4307
vn 0.7653 0.6434 -0.0189
vn 0.6191 0.6302 -0.4685
vn -0.2531 -0.5504 0.7956
vn 0.2948 -0.2735 0.9156
vn -0.2948 -0.2735 0.9156
vn 0.2531 -0.5504 0.7956
vn 0.7717 -0.3167 -0.5516
vn 0.3090 -0.0280 -0.9506
vn 0.8090 -0.0173 -0.5875
vn -0.7717 -0.3167 -0.5516
vn -0.9538 -0.3002 0.0088
vn -1.0000 -0.0000 0.0000
vn 0.3090 0.0280 0.9506
vn -0.3090 0.0280 0.9506
vn 0.2948 0.2735 -0.9156
vn 0.7717 0.2837 -0.5692
vn 0.2948 0.3269 0.8979
vn -0.2948 0.3269 0.8979
vn -0.7717 0.2837 -0.5692
vn -0.8192 0.5733 -0.0169
vn -0.6627 0.5591 -0.4982
vn 0.6627 0.5591 -0.4982
vn 0.2531 0.5504 -0.7956
vn 0.1884 0.7753 -0.6028
vn -0.6096 0.7924 -0.0233
vn -0.4932 0.7818 -0.3815
vn 0.4932 0.7818 -0.3815
vn 0.2537 0.5477 -0.7973
vn -0.8210 0.5707 -0.0168
vn -0.6642 0.5565 -0.4991
vn 0.1877 -0.8110 -0.5541
vn 0.1041 -0.9506 -0.2924
vn -0.4914 -0.8045 -0.3335
vn -0.6627 -0.5874 -0.4644
vn -0.2531 -0.5962 -0.7619
vn -0.2537 0.5477 -0.7973
vn -0.1877 -0.8110 -0.5541
vn 0.2531 -0.5962 -0.7619
vn -0.2948 -0.3269 -0.8979
vn 0.2948 -0.3269 -0.8979
vn -0.3090 -0.0280 -0.9506
vn -0.2724 -0.9354 0.2255
vn -0.1040 -0.9318 0.3478
vn -0.4914 -0.7835 0.3802
vn -0.1877 -0.7771 0.6008
vn -0.6627 -0.5591 0.4982
vn -0.7717 -0.2837 0.5692
vn -0.8090 0.0173 0.5875
vn -0.7717 0.3167 0.5516
vn -0.2531 0.5962 0.7619
vn -0.1884 0.8094 0.5562
vn -0.4932 0.8029 0.3349
vn -0.6074 -0.7940 0.0234
vn -0.8192 -0.5733 0.0169
vn -0.6627 0.5874 0.4644
vn -0.9538 0.3002 -0.0088
vn 0.1040 -0.9318 0.3478
vn 0.2724 -0.9354 0.2255
vn 0.6074 -0.7940 0.0234
vn 0.4914 -0.7835 0.3802
vn 0.6627 -0.5591 0.4982
vn 0.8192 -0.5733 0.0169
vn 1.0000 0.0000 0.0000
vn 0.9538 0.3002 -0.0088
vn 0.7717 0.3167 0.5516
vn 0.8192 0.5733 -0.0169
vn 0.6627 0.5874 0.4644
vn 0.4932 0.8029 0.3349
vn 0.6096 0.7924 -0.0233
vn 0.7717 -0.2837 0.5692
vn 0.8090 0.0173 0.5875
vn 0.2531 0.5962 0.7619
vn 0.6627 -0.5874 -0.4644
vn 0.9538 -0.3002 0.0088
vn -0.2537 0.5936 0.7637
vn -0.6191 0.6567 0.4307
vn -0.6642 0.5849 0.4656
vn -0.2365 0.6220 -0.7464
vn 0.1151 0.8610 -0.4955
vn 0.8633 0.5044 -0.0148
vn 0.6267 0.1199 -0.7700
vn -0.8144 0.0216 -0.5799
vn 0.2617 -0.0720 -0.9625
vn 0.2931 -0.0417 -0.9552
vn 0.9989 -0.0463 0.0012
vn 0.9844 -0.1760 0.0064
vn 0.2631 -0.0153 0.9646
vn -0.8122 0.1507 0.5636
vn -0.7579 0.3079 -0.5751
vn -0.8119 0.1178 -0.5718
vn 0.2515 -0.1322 -0.9588
vn 0.9203 -0.3910 0.0101
vn 0.2501 -0.0761 0.9652
vn 0.1890 -0.1305 0.9733
vn -0.6333 0.5506 0.5438
vn 0.7876 -0.6160 0.0143
vn 0.6255 0.1669 0.7622
vn 0.1149 0.8883 0.4447
vn -0.6337 0.5183 -0.5743
vn 0.1921 -0.1900 -0.9628
vn 0.9521 -0.3057 0.0072
vn 0.2365 0.6220 -0.7464
vn -0.2365 0.6648 0.7086
vn 0.4914 -0.8045 -0.3335
vn 0.1877 -0.7771 0.6008
vn -0.8090 -0.0173 -0.5875
vn 0.6642 0.5565 -0.4991
vn 0.2537 0.5936 0.7637
vn -0.1041 -0.9506 -0.2924
vn -0.2724 -0.9470 -0.1701
vn -0.2531 0.5504 -0.7956
vn -0.1884 0.7753 -0.6028
vn -0.2948 0.2735 -0.9156
vn -0.3367 -0.9412 0.0277
vn 0.8210 0.5707 -0.0168
vn 0.6642 0.5849 0.4656
vn 0.1884 0.8094 0.5562
vn 0.2365 0.6648 0.7086
vn 0.2929 0.0145 0.9560
vn -0.7574 0.3423 0.5561
vn -0.8144 0.0558 0.5776
usemtl RefRep.223_Bomb_Texture.png
s 1
f 1/1/1 2/2/2 3/3/3
f 4/4/4 5/5/5 6/6/6
f 7/7/7 8/8/8 6/6/6
f 8/9/8 9/10/9 6/6/6
f 10/11/10 11/12/11 12/13/12
f 10/11/10 13/14/13 11/12/11
f 14/15/14 15/16/15 16/17/16
f 17/18/17 18/19/18 19/20/19
f 12/13/12 20/21/20 21/22/21
f 12/13/12 11/12/11 20/21/20
f 16/17/16 22/23/22 23/24/23
f 21/22/21 24/25/24 25/26/25
f 21/22/21 20/21/20 24/25/24
f 26/27/26 27/28/27 28/29/28
f 29/30/29 30/31/30 31/32/31
f 28/29/28 32/33/32 33/34/33
f 28/29/28 27/28/27 32/33/32
f 34/35/34 31/32/31 35/36/35
f 33/34/33 36/37/36 37/38/37
f 33/34/33 32/33/32 36/37/36
f 38/39/38 1/1/1 39/40/39
f 40/41/40 41/42/41 42/43/42
f 33/34/33 37/38/37 43/44/43
f 44/45/44 42/43/42 38/39/38
f 38/39/38 42/43/42 45/46/45
f 42/43/42 46/47/46 45/46/45
f 45/46/45 46/47/46 47/48/47
f 46/47/46 48/49/48 47/48/47
f 49/50/49 50/51/50 51/52/51
f 50/51/50 52/53/52 51/52/51
f 53/54/53 10/11/10 54/55/54
f 54/55/54 12/13/12 55/56/55
f 12/13/12 21/22/21 55/56/55
f 21/22/21 25/26/25 56/57/56
f 57/58/57 58/59/58 59/60/59
f 60/61/60 53/54/53 61/62/61
f 61/62/61 54/55/54 18/19/18
f 54/55/54 55/56/55 18/19/18
f 18/19/18 55/56/55 19/20/19
f 55/56/55 56/57/56 19/20/19
f 56/57/56 62/63/62 63/64/63
f 27/28/27 59/60/59 32/33/32
f 50/51/50 3/3/3 64/65/64
f 64/65/64 3/3/3 65/66/65
f 3/3/3 2/2/2 65/66/65
f 2/2/2 66/67/66 67/68/67
f 67/68/67 66/67/66 68/69/68
f 66/67/66 69/70/69 68/69/68
f 70/71/70 71/72/71 72/73/72
f 71/72/71 73/74/73 74/75/74
f 74/75/74 73/74/73 75/76/75
f 73/74/73 76/77/76 75/76/75
f 68/69/68 77/78/77 13/14/13
f 13/14/13 77/78/77 11/12/11
f 11/12/11 78/79/78 20/21/20
f 78/79/78 72/73/72 20/21/20
f 24/25/24 74/75/74 79/80/79
f 74/75/74 75/76/75 79/80/79
f 66/67/66 80/81/80 69/70/69
f 81/82/81 16/17/16 70/71/70
f 16/17/16 23/24/23 70/71/70
f 70/71/70 23/24/23 71/72/71
f 29/30/29 34/35/34 73/74/73
f 73/74/73 34/35/34 76/77/76
f 82/83/82 83/84/83 84/85/84
f 83/84/83 5/86/5 84/85/84
f 84/85/84 5/86/5 36/37/36
f 5/86/5 4/87/4 36/37/36
f 4/87/4 85/88/85 37/38/37
f 37/38/37 85/88/85 43/44/43
f 86/89/86 87/90/87 88/91/88
f 89/92/89 90/93/90 91/94/91
f 92/95/92 93/96/93 94/97/94
f 95/98/95 96/99/96 97/100/97
f 97/100/97 98/101/98 90/93/90
f 97/100/97 96/99/96 98/101/98
f 90/93/90 99/102/99 93/96/93
f 93/96/93 100/103/100 94/97/94
f 93/96/93 99/102/99 100/103/100
f 100/103/100 101/104/101 102/105/102
f 98/101/98 103/106/103 99/102/99
f 101/104/101 104/107/104 105/108/105
f 106/109/106 88/91/88 107/110/107
f 106/109/106 86/89/86 88/91/88
f 103/106/103 104/107/104 101/104/101
f 103/106/103 108/111/108 104/107/104
f 109/112/109 85/113/85 6/6/6
f 85/114/85 4/115/4 6/6/6
f 5/116/5 83/117/83 6/6/6
f 83/118/83 110/119/110 6/6/6
f 111/120/111 45/46/45 80/81/80
f 111/120/111 38/39/38 45/46/45
f 40/41/40 60/61/60 61/62/61
f 52/53/52 13/14/13 10/11/10
f 52/53/52 112/121/112 13/14/13
f 80/81/80 45/46/45 47/48/47
f 41/42/41 61/62/61 18/19/18
f 113/122/113 63/64/63 26/27/26
f 25/26/25 79/80/79 57/58/57
f 25/26/25 24/25/24 79/80/79
f 29/30/29 31/32/31 34/35/34
f 34/35/34 35/36/35 114/123/114
f 58/59/58 115/124/115 82/83/82
f 111/120/111 1/1/1 38/39/38
f 39/40/39 3/3/3 116/125/116
f 3/3/3 117/126/117 116/125/116
f 116/125/116 117/126/117 44/45/44
f 117/126/117 40/41/40 44/45/44
f 42/43/42 41/42/41 46/47/46
f 41/42/41 17/18/17 46/47/46
f 118/127/118 28/29/28 119/128/119
f 28/29/28 33/34/33 119/128/119
f 47/48/47 48/49/48 15/16/15
f 48/49/48 120/129/120 15/16/15
f 118/127/118 119/128/119 30/31/30
f 40/41/40 117/126/117 60/61/60
f 60/61/60 117/126/117 121/130/121
f 117/126/117 3/3/3 121/130/121
f 3/3/3 50/51/50 49/50/49
f 51/52/51 52/53/52 53/54/53
f 52/53/52 10/11/10 53/54/53
f 10/11/10 12/13/12 54/55/54
f 59/60/59 58/59/58 84/85/84
f 58/59/58 82/83/82 84/85/84
f 51/52/51 53/54/53 60/61/60
f 53/54/53 54/55/54 61/62/61
f 63/64/63 62/63/62 27/28/27
f 62/63/62 59/60/59 27/28/27
f 65/66/65 2/2/2 67/68/67
f 81/82/81 70/71/70 78/79/78
f 78/79/78 70/71/70 72/73/72
f 76/77/76 122/131/122 123/132/123
f 67/68/67 68/69/68 112/121/112
f 20/21/20 72/73/72 24/25/24
f 72/73/72 74/75/74 24/25/24
f 124/133/124 123/132/123 115/124/115
f 1/1/1 111/120/111 2/2/2
f 2/2/2 111/120/111 66/67/66
f 69/70/69 14/15/14 81/82/81
f 14/15/14 16/17/16 81/82/81
f 23/24/23 29/30/29 71/72/71
f 71/72/71 29/30/29 73/74/73
f 34/35/34 114/123/114 76/77/76
f 76/77/76 114/123/114 122/131/122
f 109/134/109 9/135/9 35/36/35
f 114/123/114 8/136/8 122/131/122
f 123/132/123 125/137/125 115/124/115
f 115/124/115 110/138/110 82/83/82
f 110/138/110 83/84/83 82/83/82
f 43/44/43 109/134/109 35/36/35
f 104/107/104 87/90/87 105/108/105
f 105/108/105 87/90/87 86/89/86
f 88/91/88 87/90/87 108/111/108
f 108/111/108 87/90/87 104/107/104
f 126/139/126 94/97/94 95/98/95
f 89/92/89 97/100/97 90/93/90
f 91/94/91 93/96/93 92/95/92
f 94/97/94 127/140/127 95/98/95
f 95/98/95 127/140/127 96/99/96
f 127/140/127 106/109/106 96/99/96
f 127/140/127 102/105/102 106/109/106
f 98/101/98 107/110/107 103/106/103
f 99/102/99 101/104/101 100/103/100
f 101/104/101 105/108/105 102/105/102
f 102/105/102 86/89/86 106/109/106
f 102/105/102 105/108/105 86/89/86
f 9/141/9 109/142/109 6/6/6
f 110/143/110 125/144/125 6/6/6
f 125/145/125 7/146/7 6/6/6
f 40/41/40 61/62/61 41/42/41
f 80/81/80 47/48/47 14/15/14
f 41/42/41 18/19/18 17/18/17
f 14/15/14 47/48/47 15/16/15
f 17/18/17 19/20/19 113/122/113
f 16/17/16 15/16/15 22/23/22
f 113/122/113 19/20/19 63/64/63
f 23/24/23 30/31/30 29/30/29
f 23/24/23 22/23/22 30/31/30
f 26/27/26 63/64/63 27/28/27
f 57/58/57 124/133/124 58/59/58
f 57/58/57 79/80/79 124/133/124
f 58/59/58 124/133/124 115/124/115
f 1/1/1 3/3/3 39/40/39
f 44/45/44 40/41/40 42/43/42
f 46/47/46 17/18/17 48/49/48
f 17/18/17 113/122/113 48/49/48
f 48/49/48 113/122/113 120/129/120
f 113/122/113 26/27/26 120/129/120
f 120/129/120 26/27/26 118/127/118
f 26/27/26 28/29/28 118/127/118
f 119/128/119 33/34/33 43/44/43
f 116/125/116 44/45/44 39/40/39
f 39/40/39 44/45/44 38/39/38
f 15/16/15 120/129/120 22/23/22
f 120/129/120 118/127/118 22/23/22
f 22/23/22 118/127/118 30/31/30
f 30/31/30 119/128/119 31/32/31
f 119/128/119 43/44/43 31/32/31
f 31/32/31 43/44/43 35/36/35
f 121/130/121 3/3/3 49/50/49
f 55/56/55 21/22/21 56/57/56
f 56/57/56 25/26/25 62/63/62
f 25/26/25 57/58/57 62/63/62
f 62/63/62 57/58/57 59/60/59
f 49/50/49 51/52/51 121/130/121
f 121/130/121 51/52/51 60/61/60
f 19/20/19 56/57/56 63/64/63
f 59/60/59 84/85/84 32/33/32
f 32/33/32 84/85/84 36/37/36
f 52/53/52 50/51/50 112/121/112
f 112/121/112 50/51/50 64/65/64
f 68/69/68 69/70/69 77/78/77
f 69/70/69 81/82/81 77/78/77
f 77/78/77 81/82/81 78/79/78
f 72/73/72 71/72/71 74/75/74
f 75/76/75 76/77/76 123/132/123
f 65/66/65 67/68/67 64/65/64
f 64/65/64 67/68/67 112/121/112
f 112/121/112 68/69/68 13/14/13
f 77/78/77 78/79/78 11/12/11
f 79/80/79 75/76/75 124/133/124
f 75/76/75 123/132/123 124/133/124
f 111/120/111 80/81/80 66/67/66
f 80/81/80 14/15/14 69/70/69
f 35/36/35 9/135/9 114/123/114
f 9/135/9 8/136/8 114/123/114
f 8/136/8 7/147/7 122/131/122
f 122/131/122 7/147/7 123/132/123
f 7/147/7 125/137/125 123/132/123
f 125/137/125 110/138/110 115/124/115
f 36/37/36 4/87/4 37/38/37
f 85/88/85 109/134/109 43/44/43
f 126/139/126 95/98/95 128/148/128
f 128/148/128 97/100/97 89/92/89
f 128/148/128 95/98/95 97/100/97
f 91/94/91 90/93/90 93/96/93
f 92/95/92 94/97/94 126/139/126
f 94/97/94 100/103/100 127/140/127
f 90/93/90 98/101/98 99/102/99
f 100/103/100 102/105/102 127/140/127
f 96/99/96 107/110/107 98/101/98
f 96/99/96 106/109/106 107/110/107
f 99/102/99 103/106/103 101/104/101
f 107/110/107 108/111/108 103/106/103
f 107/110/107 88/91/88 108/111/108
