# Wavefront OBJ file
# Exported by Misfit Model 3D 1.3.8
# Thu Apr 14 16:56:40 2016

mtllib supermushroom.mtl

# 67 Vertices
v 0.0 1.888916 -3.520752
v 0.0 0.480957 -2.596191
v 2.489502 1.888916 -2.489502
v 1.835693 0.480957 -1.835693
v 3.520752 1.888916 0.0
v 2.596191 0.480957 0.0
v 2.489502 1.888916 2.489502
v 1.835693 0.480957 1.835693
v 0.0 1.888916 3.520752
v 0.0 0.480957 2.596191
v -2.489502 1.888916 2.489502
v -1.835693 0.480957 1.835693
v -3.520752 1.888916 0.0
v -2.596191 0.480957 0.0
v -2.489502 1.888916 -2.489502
v -1.835693 0.480957 -1.835693
v 0.0 0.0 0.0
v 0.0 4.28125 3.241211
v 2.291992 4.28125 2.291992
v 3.241211 4.28125 0.0
v 2.291992 4.28125 -2.291992
v 0.0 4.28125 -3.241211
v -2.291992 4.28125 -2.291992
v -3.241211 4.28125 0.0
v -2.291992 4.28125 2.291992
v 0.0 8.865478 -3.958252
v -2.798828 8.865478 -2.798828
v 0.0 7.336425 -4.880859
v -3.451172 7.336425 -3.451172
v 0.0 5.775634 -5.180908
v -3.66333 5.775634 -3.66333
v -3.355713 4.375732 -3.355713
v 0.0 4.375732 -4.745605
v 2.798828 8.865478 -2.798828
v 3.451172 7.336425 -3.451172
v 3.66333 5.775634 -3.66333
v 3.355713 4.375732 -3.355713
v -3.958252 8.865478 0.0
v -4.880859 7.336425 0.0
v -5.180908 5.775634 0.0
v -4.745605 4.375732 0.0
v -2.798828 8.865478 2.798828
v -3.451172 7.336425 3.451172
v -3.66333 5.775634 3.66333
v -3.355713 4.375732 3.355713
v 0.0 8.865478 3.958252
v 0.0 7.336425 4.880859
v 0.0 5.775634 5.180908
v 0.0 4.375732 4.745605
v 2.798828 8.865478 2.798828
v 3.451172 7.336425 3.451172
v 3.66333 5.775634 3.66333
v 3.355713 4.375732 3.355713
v 3.958252 8.865478 0.0
v 4.880859 7.336425 0.0
v 5.180908 5.775634 0.0
v 4.745605 4.375732 0.0
v 0.0 10.120849 -2.306641
v 0.0 10.650146 0.0
v -1.631104 10.120849 -1.631104
v -2.306641 10.120849 0.0
v -1.631104 10.120849 1.631104
v 0.0 10.120849 2.306641
v 1.631104 10.120849 1.631104
v 2.306641 10.120849 0.0
v 1.631104 10.120849 -1.631104
v 0.0 2.009765 0.0

# 360 Texture Coordinates
vt 0.061096 0.270966
vt 0.061096 0.330688
vt 0.061096 0.270966
vt 0.061096 0.270966
vt 0.061096 0.330688
vt 0.061096 0.330688
vt 0.061096 0.270966
vt 0.061096 0.330688
vt 0.061096 0.270966
vt 0.061096 0.270966
vt 0.061096 0.330688
vt 0.061096 0.330688
vt 0.061096 0.270966
vt 0.061096 0.330688
vt 0.061096 0.270966
vt 0.061096 0.270966
vt 0.061096 0.330688
vt 0.061096 0.330688
vt 0.061096 0.270966
vt 0.061096 0.330688
vt 0.061096 0.270966
vt 0.061096 0.270966
vt 0.061096 0.330688
vt 0.061096 0.330688
vt 0.061096 0.270966
vt 0.061096 0.330688
vt 0.061096 0.270966
vt 0.061096 0.270966
vt 0.061096 0.330688
vt 0.061096 0.330688
vt 0.061096 0.270966
vt 0.061096 0.330688
vt 0.061096 0.270966
vt 0.061096 0.270966
vt 0.061096 0.330688
vt 0.061096 0.330688
vt 0.061096 0.270966
vt 0.061096 0.330688
vt 0.061096 0.270966
vt 0.061096 0.270966
vt 0.061096 0.330688
vt 0.061096 0.330688
vt 0.061096 0.270966
vt 0.061096 0.330688
vt 0.061096 0.270966
vt 0.061096 0.330688
vt 0.061096 0.330688
vt 0.061096 0.270966
vt 0.061096 0.330688
vt 0.061096 0.275574
vt 0.061096 0.330688
vt 0.061096 0.330688
vt 0.061096 0.275574
vt 0.061096 0.330688
vt 0.061096 0.330688
vt 0.061096 0.330688
vt 0.061096 0.275574
vt 0.061096 0.275574
vt 0.061096 0.330688
vt 0.061096 0.330688
vt 0.061096 0.275574
vt 0.061096 0.330688
vt 0.061096 0.330688
vt 0.061096 0.275574
vt 0.061096 0.330688
vt 0.061096 0.330688
vt 0.061096 0.275574
vt 0.061096 0.330688
vt 0.061096 0.330688
vt 0.061096 0.330688
vt 0.061096 0.330688
vt 0.061096 0.275574
vt 0.044006 0.270966
vt 0.446381 0.501099
vt 0.044006 0.501099
vt 0.481079 0.270966
vt 0.446381 0.501099
vt 0.044006 0.270966
vt 0.481079 0.270966
vt 0.420319 0.501099
vt 0.446381 0.501099
vt 0.452789 0.270966
vt 0.420319 0.501099
vt 0.481079 0.270966
vt 0.452789 0.270966
vt 0.446381 0.501099
vt 0.420319 0.501099
vt 0.481079 0.270966
vt 0.446381 0.501099
vt 0.452789 0.270966
vt 0.481079 0.270966
vt 0.404358 0.501099
vt 0.446381 0.501099
vt 0.404358 0.270966
vt 0.404358 0.501099
vt 0.481079 0.270966
vt 0.13974 0.270966
vt 0.095215 0.501099
vt 0.13974 0.501099
vt 0.061096 0.270966
vt 0.095215 0.501099
vt 0.13974 0.270966
vt 0.061096 0.270966
vt 0.121277 0.501099
vt 0.095215 0.501099
vt 0.088806 0.270966
vt 0.121277 0.501099
vt 0.061096 0.270966
vt 0.088806 0.270966
vt 0.095215 0.501099
vt 0.121277 0.501099
vt 0.061096 0.270966
vt 0.095215 0.501099
vt 0.088806 0.270966
vt 0.061096 0.270966
vt 0.497589 0.501099
vt 0.095215 0.501099
vt 0.497589 0.270966
vt 0.497589 0.501099
vt 0.061096 0.270966
vt 0.496857 0.029938
vt 0.294128 0.110291
vt 0.496857 0.110291
vt 0.496857 0.029938
vt 0.246887 0.029938
vt 0.294128 0.110291
vt 0.496857 -0.052032
vt 0.246887 0.029938
vt 0.496857 0.029938
vt 0.496857 -0.052032
vt 0.231537 -0.052032
vt 0.246887 0.029938
vt 0.496857 -0.052032
vt 0.253815 -0.12561
vt 0.231537 -0.052032
vt 0.496857 -0.12561
vt 0.253815 -0.12561
vt 0.496857 -0.052032
vt 0.746826 0.029938
vt 0.496857 0.110291
vt 0.699585 0.110291
vt 0.746826 0.029938
vt 0.496857 0.029938
vt 0.496857 0.110291
vt 0.762177 -0.052032
vt 0.496857 0.029938
vt 0.746826 0.029938
vt 0.762177 -0.052032
vt 0.496857 -0.052032
vt 0.496857 0.029938
vt 0.762177 -0.052032
vt 0.496857 -0.12561
vt 0.496857 -0.052032
vt 0.739899 -0.12561
vt 0.496857 -0.12561
vt 0.762177 -0.052032
vt 0.725281 0.034729
vt 0.459747 0.106873
vt 0.650787 0.114014
vt 0.725281 0.034729
vt 0.489685 0.02594
vt 0.459747 0.106873
vt 0.770325 -0.047333
vt 0.489685 0.02594
vt 0.725281 0.034729
vt 0.770325 -0.047333
vt 0.520233 -0.056671
vt 0.489685 0.02594
vt 0.770325 -0.047333
vt 0.547668 -0.130798
vt 0.520233 -0.056671
vt 0.776733 -0.122253
vt 0.547668 -0.130798
vt 0.770325 -0.047333
vt 0.489685 0.02594
vt 0.268677 0.099731
vt 0.459747 0.106873
vt 0.489685 0.02594
vt 0.25412 0.01712
vt 0.268677 0.099731
vt 0.520233 -0.056671
vt 0.25412 0.01712
vt 0.489685 0.02594
vt 0.520233 -0.056671
vt 0.270172 -0.06604
vt 0.25412 0.01712
vt 0.520233 -0.056671
vt 0.318604 -0.139374
vt 0.270172 -0.06604
vt 0.547668 -0.130798
vt 0.318604 -0.139374
vt 0.520233 -0.056671
vt 0.246887 0.029938
vt 0.496857 0.110291
vt 0.294128 0.110291
vt 0.246887 0.029938
vt 0.496857 0.029938
vt 0.496857 0.110291
vt 0.231537 -0.052032
vt 0.496857 0.029938
vt 0.246887 0.029938
vt 0.231537 -0.052032
vt 0.496857 -0.052032
vt 0.496857 0.029938
vt 0.231537 -0.052032
vt 0.496857 -0.12561
vt 0.496857 -0.052032
vt 0.253815 -0.12561
vt 0.496857 -0.12561
vt 0.231537 -0.052032
vt 0.496857 0.029938
vt 0.699585 0.110291
vt 0.496857 0.110291
vt 0.496857 0.029938
vt 0.746826 0.029938
vt 0.699585 0.110291
vt 0.496857 -0.052032
vt 0.746826 0.029938
vt 0.496857 0.029938
vt 0.496857 -0.052032
vt 0.762177 -0.052032
vt 0.746826 0.029938
vt 0.496857 -0.052032
vt 0.739899 -0.12561
vt 0.762177 -0.052032
vt 0.496857 -0.12561
vt 0.739899 -0.12561
vt 0.496857 -0.052032
vt 0.25412 0.01712
vt 0.459747 0.106873
vt 0.268677 0.099731
vt 0.25412 0.01712
vt 0.489685 0.02594
vt 0.459747 0.106873
vt 0.270172 -0.06604
vt 0.489685 0.02594
vt 0.25412 0.01712
vt 0.270172 -0.06604
vt 0.520233 -0.056671
vt 0.489685 0.02594
vt 0.270172 -0.06604
vt 0.547668 -0.130798
vt 0.520233 -0.056671
vt 0.318604 -0.139374
vt 0.547668 -0.130798
vt 0.270172 -0.06604
vt 0.489685 0.02594
vt 0.650787 0.114014
vt 0.459747 0.106873
vt 0.489685 0.02594
vt 0.725281 0.034729
vt 0.650787 0.114014
vt 0.520233 -0.056671
vt 0.725281 0.034729
vt 0.489685 0.02594
vt 0.520233 -0.056671
vt 0.770325 -0.047333
vt 0.725281 0.034729
vt 0.520233 -0.056671
vt 0.776733 -0.122253
vt 0.770325 -0.047333
vt 0.547668 -0.130798
vt 0.776733 -0.122253
vt 0.520233 -0.056671
vt 0.517639 -0.029022
vt 0.660095 -0.164917
vt 0.712677 -0.000519
vt 0.517639 -0.029022
vt 0.373383 -0.108398
vt 0.660095 -0.164917
vt 0.517639 -0.029022
vt 0.17453 -0.025513
vt 0.373383 -0.108398
vt 0.517639 -0.029022
vt 0.393494 0.101074
vt 0.17453 -0.025513
vt 0.712677 -0.000519
vt 0.393494 0.101074
vt 0.517639 -0.029022
vt 0.712677 -0.000519
vt 0.719513 0.136749
vt 0.393494 0.101074
vt 0.539703 -0.004272
vt 0.79303 0.121613
vt 0.421692 0.115692
vt 0.539703 -0.004272
vt 0.785461 -0.055237
vt 0.79303 0.121613
vt 0.539703 -0.004272
vt 0.721741 -0.19519
vt 0.785461 -0.055237
vt 0.539703 -0.004272
vt 0.325745 -0.096283
vt 0.721741 -0.19519
vt 0.421692 0.115692
vt 0.325745 -0.096283
vt 0.539703 -0.004272
vt 0.421692 0.115692
vt 0.097473 0.098114
vt 0.325745 -0.096283
vt 0.498688 0.00116
vt 0.265656 0.12262
vt 0.281433 -0.05481
vt 0.498688 0.00116
vt 0.588684 0.122375
vt 0.265656 0.12262
vt 0.498688 0.00116
vt 0.830688 0.074524
vt 0.588684 0.122375
vt 0.498688 0.00116
vt 0.673706 -0.090912
vt 0.830688 0.074524
vt 0.281433 -0.05481
vt 0.673706 -0.090912
vt 0.498688 0.00116
vt 0.281433 -0.05481
vt 0.35498 -0.204926
vt 0.673706 -0.090912
vt 0.503357 -0.001953
vt 0.780273 0.140106
vt 0.359406 0.117889
vt 0.503357 -0.001953
vt 0.80127 -0.051575
vt 0.780273 0.140106
vt 0.503357 -0.001953
vt 0.792969 -0.225647
vt 0.80127 -0.051575
vt 0.503357 -0.001953
vt 0.281738 -0.140442
vt 0.792969 -0.225647
vt 0.359406 0.117889
vt 0.281738 -0.140442
vt 0.503357 -0.001953
vt 0.359406 0.117889
vt 0.034698 0.065216
vt 0.281738 -0.140442
vt 0.216034 0.058472
vt 0.229309 0.078857
vt 0.261383 0.058472
vt 0.229309 0.038086
vt 0.216034 0.058472
vt 0.261383 0.058472
vt 0.261383 0.029633
vt 0.229309 0.038086
vt 0.261383 0.058472
vt 0.293488 0.038086
vt 0.261383 0.029633
vt 0.261383 0.058472
vt 0.306763 0.058472
vt 0.293488 0.038086
vt 0.261383 0.058472
vt 0.293488 0.078857
vt 0.306763 0.058472
vt 0.261383 0.058472
vt 0.261383 0.087311
vt 0.293488 0.078857
vt 0.261383 0.058472
vt 0.229309 0.078857
vt 0.261383 0.087311
vt 0.261383 0.058472

# 360 Vertex Normals
vn 0.587267 -0.232052 -0.775415
vn 0.073262 -0.787516 -0.611925
vn -0.13304 -0.23203 -0.963567
vn 0.587267 -0.232052 -0.775415
vn 0.484502 -0.787509 -0.380903
vn 0.073262 -0.787516 -0.611925
vn 0.963567 -0.23203 -0.13304
vn 0.484502 -0.787509 -0.380903
vn 0.587267 -0.232052 -0.775415
vn 0.963567 -0.23203 -0.13304
vn 0.611925 -0.787516 0.073262
vn 0.484502 -0.787509 -0.380903
vn 0.775415 -0.232052 0.587267
vn 0.611925 -0.787516 0.073262
vn 0.963567 -0.23203 -0.13304
vn 0.775415 -0.232052 0.587267
vn 0.380903 -0.787509 0.484502
vn 0.611925 -0.787516 0.073262
vn 0.13304 -0.23203 0.963567
vn 0.380903 -0.787509 0.484502
vn 0.775415 -0.232052 0.587267
vn 0.13304 -0.23203 0.963567
vn -0.073262 -0.787516 0.611925
vn 0.380903 -0.787509 0.484502
vn -0.587267 -0.232052 0.775415
vn -0.073262 -0.787516 0.611925
vn 0.13304 -0.23203 0.963567
vn -0.587267 -0.232052 0.775415
vn -0.484502 -0.787509 0.380903
vn -0.073262 -0.787516 0.611925
vn -0.963567 -0.23203 0.13304
vn -0.484502 -0.787509 0.380903
vn -0.587267 -0.232052 0.775415
vn -0.963567 -0.23203 0.13304
vn -0.611925 -0.787516 -0.073262
vn -0.484502 -0.787509 0.380903
vn -0.775415 -0.232052 -0.587267
vn -0.611925 -0.787516 -0.073262
vn -0.963567 -0.23203 0.13304
vn -0.775415 -0.232052 -0.587267
vn -0.380903 -0.787509 -0.484502
vn -0.611925 -0.787516 -0.073262
vn -0.13304 -0.23203 -0.963567
vn -0.380903 -0.787509 -0.484502
vn -0.775415 -0.232052 -0.587267
vn 0.073262 -0.787516 -0.611925
vn -0.380903 -0.787509 -0.484502
vn -0.13304 -0.23203 -0.963567
vn 0.073262 -0.787516 -0.611925
vn 0.0 -1.0 0.0
vn -0.380903 -0.787509 -0.484502
vn 0.484502 -0.787509 -0.380903
vn 0.0 -1.0 0.0
vn 0.073262 -0.787516 -0.611925
vn 0.484502 -0.787509 -0.380903
vn 0.611925 -0.787516 0.073262
vn 0.0 -1.0 0.0
vn 0.0 -1.0 0.0
vn -0.611925 -0.787516 -0.073262
vn -0.380903 -0.787509 -0.484502
vn 0.0 -1.0 0.0
vn -0.484502 -0.787509 0.380903
vn -0.611925 -0.787516 -0.073262
vn 0.0 -1.0 0.0
vn -0.073262 -0.787516 0.611925
vn -0.484502 -0.787509 0.380903
vn 0.0 -1.0 0.0
vn 0.380903 -0.787509 0.484502
vn -0.073262 -0.787516 0.611925
vn 0.611925 -0.787516 0.073262
vn 0.380903 -0.787509 0.484502
vn 0.0 -1.0 0.0
vn 0.13304 -0.23203 0.963567
vn 0.599753 0.114925 0.791889
vn -0.135873 0.114951 0.984035
vn 0.775415 -0.232052 0.587267
vn 0.599753 0.114925 0.791889
vn 0.13304 -0.23203 0.963567
vn 0.775415 -0.232052 0.587267
vn 0.984035 0.114951 0.135873
vn 0.599753 0.114925 0.791889
vn 0.963567 -0.23203 -0.13304
vn 0.984035 0.114951 0.135873
vn 0.775415 -0.232052 0.587267
vn 0.963567 -0.23203 -0.13304
vn 0.791889 0.114925 -0.599753
vn 0.984035 0.114951 0.135873
vn 0.587267 -0.232052 -0.775415
vn 0.791889 0.114925 -0.599753
vn 0.963567 -0.23203 -0.13304
vn 0.587267 -0.232052 -0.775415
vn 0.135873 0.114951 -0.984035
vn 0.791889 0.114925 -0.599753
vn -0.13304 -0.23203 -0.963567
vn 0.135873 0.114951 -0.984035
vn 0.587267 -0.232052 -0.775415
vn -0.13304 -0.23203 -0.963567
vn -0.599753 0.114925 -0.791889
vn 0.135873 0.114951 -0.984035
vn -0.775415 -0.232052 -0.587267
vn -0.599753 0.114925 -0.791889
vn -0.13304 -0.23203 -0.963567
vn -0.775415 -0.232052 -0.587267
vn -0.984035 0.114951 -0.135873
vn -0.599753 0.114925 -0.791889
vn -0.963567 -0.23203 0.13304
vn -0.984035 0.114951 -0.135873
vn -0.775415 -0.232052 -0.587267
vn -0.963567 -0.23203 0.13304
vn -0.791889 0.114925 0.599753
vn -0.984035 0.114951 -0.135873
vn -0.587267 -0.232052 0.775415
vn -0.791889 0.114925 0.599753
vn -0.963567 -0.23203 0.13304
vn -0.587267 -0.232052 0.775415
vn -0.135873 0.114951 0.984035
vn -0.791889 0.114925 0.599753
vn 0.13304 -0.23203 0.963567
vn -0.135873 0.114951 0.984035
vn -0.587267 -0.232052 0.775415
vn 0.007707 0.3597 -0.933036
vn -0.449936 0.666803 -0.59408
vn 0.101929 0.666821 -0.738214
vn 0.007707 0.3597 -0.933036
vn -0.654313 0.359687 -0.665207
vn -0.449936 0.666803 -0.59408
vn -0.136568 -0.055679 -0.989065
vn -0.654313 0.359687 -0.665207
vn 0.007707 0.3597 -0.933036
vn -0.136568 -0.055679 -0.989065
vn -0.795936 -0.055648 -0.602818
vn -0.654313 0.359687 -0.665207
vn -0.136568 -0.055679 -0.989065
vn -0.509827 -0.587972 -0.627985
vn -0.795936 -0.055648 -0.602818
vn 0.08357 -0.587995 -0.804536
vn -0.509827 -0.587972 -0.627985
vn -0.136568 -0.055679 -0.989065
vn 0.665207 0.359687 -0.654313
vn 0.101929 0.666821 -0.738214
vn 0.59408 0.666803 -0.449936
vn 0.665207 0.359687 -0.654313
vn 0.007707 0.3597 -0.933036
vn 0.101929 0.666821 -0.738214
vn 0.602818 -0.055648 -0.795936
vn 0.007707 0.3597 -0.933036
vn 0.665207 0.359687 -0.654313
vn 0.602818 -0.055648 -0.795936
vn -0.136568 -0.055679 -0.989065
vn 0.007707 0.3597 -0.933036
vn 0.602818 -0.055648 -0.795936
vn 0.08357 -0.587995 -0.804536
vn -0.136568 -0.055679 -0.989065
vn 0.627985 -0.587973 -0.509827
vn 0.08357 -0.587995 -0.804536
vn 0.602818 -0.055648 -0.795936
vn -0.654313 0.359687 -0.665207
vn -0.738214 0.666821 -0.101929
vn -0.449936 0.666803 -0.59408
vn -0.654313 0.359687 -0.665207
vn -0.933036 0.3597 -0.007707
vn -0.738214 0.666821 -0.101929
vn -0.795936 -0.055648 -0.602818
vn -0.933036 0.3597 -0.007707
vn -0.654313 0.359687 -0.665207
vn -0.795936 -0.055648 -0.602818
vn -0.989065 -0.055679 0.136568
vn -0.933036 0.3597 -0.007707
vn -0.795936 -0.055648 -0.602818
vn -0.804536 -0.587995 -0.08357
vn -0.989065 -0.055679 0.136568
vn -0.509827 -0.587972 -0.627985
vn -0.804536 -0.587995 -0.08357
vn -0.795936 -0.055648 -0.602818
vn -0.933036 0.3597 -0.007707
vn -0.59408 0.666803 0.449936
vn -0.738214 0.666821 -0.101929
vn -0.933036 0.3597 -0.007707
vn -0.665207 0.359687 0.654313
vn -0.59408 0.666803 0.449936
vn -0.989065 -0.055679 0.136568
vn -0.665207 0.359687 0.654313
vn -0.933036 0.3597 -0.007707
vn -0.989065 -0.055679 0.136568
vn -0.602818 -0.055648 0.795936
vn -0.665207 0.359687 0.654313
vn -0.989065 -0.055679 0.136568
vn -0.627985 -0.587973 0.509827
vn -0.602818 -0.055648 0.795936
vn -0.804536 -0.587995 -0.08357
vn -0.627985 -0.587973 0.509827
vn -0.989065 -0.055679 0.136568
vn -0.665207 0.359687 0.654313
vn -0.101929 0.666821 0.738214
vn -0.59408 0.666803 0.449936
vn -0.665207 0.359687 0.654313
vn -0.007707 0.3597 0.933036
vn -0.101929 0.666821 0.738214
vn -0.602818 -0.055648 0.795936
vn -0.007707 0.3597 0.933036
vn -0.665207 0.359687 0.654313
vn -0.602818 -0.055648 0.795936
vn 0.136568 -0.055679 0.989065
vn -0.007707 0.3597 0.933036
vn -0.602818 -0.055648 0.795936
vn -0.08357 -0.587995 0.804536
vn 0.136568 -0.055679 0.989065
vn -0.627985 -0.587973 0.509827
vn -0.08357 -0.587995 0.804536
vn -0.602818 -0.055648 0.795936
vn -0.007707 0.3597 0.933036
vn 0.449936 0.666803 0.59408
vn -0.101929 0.666821 0.738214
vn -0.007707 0.3597 0.933036
vn 0.654313 0.359687 0.665207
vn 0.449936 0.666803 0.59408
vn 0.136568 -0.055679 0.989065
vn 0.654313 0.359687 0.665207
vn -0.007707 0.3597 0.933036
vn 0.136568 -0.055679 0.989065
vn 0.795936 -0.055648 0.602818
vn 0.654313 0.359687 0.665207
vn 0.136568 -0.055679 0.989065
vn 0.509827 -0.587972 0.627985
vn 0.795936 -0.055648 0.602818
vn -0.08357 -0.587995 0.804536
vn 0.509827 -0.587972 0.627985
vn 0.136568 -0.055679 0.989065
vn 0.654313 0.359687 0.665207
vn 0.738214 0.666821 0.101929
vn 0.449936 0.666803 0.59408
vn 0.654313 0.359687 0.665207
vn 0.933036 0.3597 0.007707
vn 0.738214 0.666821 0.101929
vn 0.795936 -0.055648 0.602818
vn 0.933036 0.3597 0.007707
vn 0.654313 0.359687 0.665207
vn 0.795936 -0.055648 0.602818
vn 0.989065 -0.055679 -0.136568
vn 0.933036 0.3597 0.007707
vn 0.795936 -0.055648 0.602818
vn 0.804536 -0.587995 0.08357
vn 0.989065 -0.055679 -0.136568
vn 0.509827 -0.587972 0.627985
vn 0.804536 -0.587995 0.08357
vn 0.795936 -0.055648 0.602818
vn 0.933036 0.3597 0.007707
vn 0.59408 0.666803 -0.449936
vn 0.738214 0.666821 0.101929
vn 0.933036 0.3597 0.007707
vn 0.665207 0.359687 -0.654313
vn 0.59408 0.666803 -0.449936
vn 0.989065 -0.055679 -0.136568
vn 0.665207 0.359687 -0.654313
vn 0.933036 0.3597 0.007707
vn 0.989065 -0.055679 -0.136568
vn 0.602818 -0.055648 -0.795936
vn 0.665207 0.359687 -0.654313
vn 0.989065 -0.055679 -0.136568
vn 0.627985 -0.587973 -0.509827
vn 0.602818 -0.055648 -0.795936
vn 0.804536 -0.587995 0.08357
vn 0.627985 -0.587973 -0.509827
vn 0.989065 -0.055679 -0.136568
vn -0.360723 0.886728 -0.289122
vn -0.0 1.0 0.0
vn -0.050645 0.886728 -0.459509
vn -0.360723 0.886728 -0.289122
vn -0.459509 0.886728 0.050645
vn -0.0 1.0 0.0
vn -0.360723 0.886728 -0.289122
vn -0.738214 0.666821 -0.101929
vn -0.459509 0.886728 0.050645
vn -0.360723 0.886728 -0.289122
vn -0.449936 0.666803 -0.59408
vn -0.738214 0.666821 -0.101929
vn -0.050645 0.886728 -0.459509
vn -0.449936 0.666803 -0.59408
vn -0.360723 0.886728 -0.289122
vn -0.050645 0.886728 -0.459509
vn 0.101929 0.666821 -0.738214
vn -0.449936 0.666803 -0.59408
vn -0.289122 0.886728 0.360724
vn -0.0 1.0 0.0
vn -0.459509 0.886728 0.050645
vn -0.289122 0.886728 0.360724
vn 0.050645 0.886728 0.459509
vn -0.0 1.0 0.0
vn -0.289122 0.886728 0.360724
vn -0.101929 0.666821 0.738214
vn 0.050645 0.886728 0.459509
vn -0.289122 0.886728 0.360724
vn -0.59408 0.666803 0.449936
vn -0.101929 0.666821 0.738214
vn -0.459509 0.886728 0.050645
vn -0.59408 0.666803 0.449936
vn -0.289122 0.886728 0.360724
vn -0.459509 0.886728 0.050645
vn -0.738214 0.666821 -0.101929
vn -0.59408 0.666803 0.449936
vn 0.360723 0.886728 0.289122
vn -0.0 1.0 0.0
vn 0.050645 0.886728 0.459509
vn 0.360723 0.886728 0.289122
vn 0.459509 0.886728 -0.050645
vn -0.0 1.0 0.0
vn 0.360723 0.886728 0.289122
vn 0.738214 0.666821 0.101929
vn 0.459509 0.886728 -0.050645
vn 0.360723 0.886728 0.289122
vn 0.449936 0.666803 0.59408
vn 0.738214 0.666821 0.101929
vn 0.050645 0.886728 0.459509
vn 0.449936 0.666803 0.59408
vn 0.360723 0.886728 0.289122
vn 0.050645 0.886728 0.459509
vn -0.101929 0.666821 0.738214
vn 0.449936 0.666803 0.59408
vn 0.289122 0.886728 -0.360724
vn -0.0 1.0 0.0
vn 0.459509 0.886728 -0.050645
vn 0.289122 0.886728 -0.360724
vn -0.050645 0.886728 -0.459509
vn -0.0 1.0 0.0
vn 0.289122 0.886728 -0.360724
vn 0.101929 0.666821 -0.738214
vn -0.050645 0.886728 -0.459509
vn 0.289122 0.886728 -0.360724
vn 0.59408 0.666803 -0.449936
vn 0.101929 0.666821 -0.738214
vn 0.459509 0.886728 -0.050645
vn 0.59408 0.666803 -0.449936
vn 0.289122 0.886728 -0.360724
vn 0.459509 0.886728 -0.050645
vn 0.738214 0.666821 0.101929
vn 0.59408 0.666803 -0.449936
vn -0.804536 -0.587995 -0.08357
vn -0.509827 -0.587972 -0.627985
vn -0.0 -1.0 -0.0
vn -0.627985 -0.587973 0.509827
vn -0.804536 -0.587995 -0.08357
vn -0.0 -1.0 -0.0
vn -0.08357 -0.587995 0.804536
vn -0.627985 -0.587973 0.509827
vn -0.0 -1.0 -0.0
vn 0.509827 -0.587972 0.627985
vn -0.08357 -0.587995 0.804536
vn -0.0 -1.0 -0.0
vn 0.804536 -0.587995 0.08357
vn 0.509827 -0.587972 0.627985
vn -0.0 -1.0 -0.0
vn 0.627985 -0.587973 -0.509827
vn 0.804536 -0.587995 0.08357
vn -0.0 -1.0 -0.0
vn 0.08357 -0.587995 -0.804536
vn 0.627985 -0.587973 -0.509827
vn -0.0 -1.0 -0.0
vn -0.509827 -0.587972 -0.627985
vn 0.08357 -0.587995 -0.804536
vn -0.0 -1.0 -0.0

# mesh0081, 120 grouped triangles

usemtl mesh0081mat
o mesh0081
g mesh0081

f 3/1/1 2/2/2 1/3/3
f 3/4/4 4/5/5 2/6/6
f 5/7/7 4/8/8 3/9/9
f 5/10/10 6/11/11 4/12/12
f 7/13/13 6/14/14 5/15/15
f 7/16/16 8/17/17 6/18/18
f 9/19/19 8/20/20 7/21/21
f 9/22/22 10/23/23 8/24/24
f 11/25/25 10/26/26 9/27/27
f 11/28/28 12/29/29 10/30/30
f 13/31/31 12/32/32 11/33/33
f 13/34/34 14/35/35 12/36/36
f 15/37/37 14/38/38 13/39/39
f 15/40/40 16/41/41 14/42/42
f 1/43/43 16/44/44 15/45/45
f 2/46/46 16/47/47 1/48/48
f 2/49/49 17/50/50 16/51/51
f 4/52/52 17/53/53 2/54/54
f 4/55/55 6/56/56 17/57/57
f 17/58/58 14/59/59 16/60/60
f 17/61/61 12/62/62 14/63/63
f 17/64/64 10/65/65 12/66/66
f 17/67/67 8/68/68 10/69/69
f 6/70/70 8/71/71 17/72/72
f 9/73/73 19/74/74 18/75/75
f 7/76/76 19/77/77 9/78/78
f 7/79/79 20/80/80 19/81/81
f 5/82/82 20/83/83 7/84/84
f 5/85/85 21/86/86 20/87/87
f 3/88/88 21/89/89 5/90/90
f 3/91/91 22/92/92 21/93/93
f 1/94/94 22/95/95 3/96/96
f 1/97/97 23/98/98 22/99/99
f 15/100/100 23/101/101 1/102/102
f 15/103/103 24/104/104 23/105/105
f 13/106/106 24/107/107 15/108/108
f 13/109/109 25/110/110 24/111/111
f 11/112/112 25/113/113 13/114/114
f 11/115/115 18/116/116 25/117/117
f 9/118/118 18/119/119 11/120/120
f 28/121/121 27/122/122 26/123/123
f 28/124/124 29/125/125 27/126/126
f 30/127/127 29/128/128 28/129/129
f 30/130/130 31/131/131 29/132/132
f 30/133/133 32/134/134 31/135/135
f 33/136/136 32/137/137 30/138/138
f 35/139/139 26/140/140 34/141/141
f 35/142/142 28/143/143 26/144/144
f 36/145/145 28/146/146 35/147/147
f 36/148/148 30/149/149 28/150/150
f 36/151/151 33/152/152 30/153/153
f 37/154/154 33/155/155 36/156/156
f 29/157/157 38/158/158 27/159/159
f 29/160/160 39/161/161 38/162/162
f 31/163/163 39/164/164 29/165/165
f 31/166/166 40/167/167 39/168/168
f 31/169/169 41/170/170 40/171/171
f 32/172/172 41/173/173 31/174/174
f 39/175/175 42/176/176 38/177/177
f 39/178/178 43/179/179 42/180/180
f 40/181/181 43/182/182 39/183/183
f 40/184/184 44/185/185 43/186/186
f 40/187/187 45/188/188 44/189/189
f 41/190/190 45/191/191 40/192/192
f 43/193/193 46/194/194 42/195/195
f 43/196/196 47/197/197 46/198/198
f 44/199/199 47/200/200 43/201/201
f 44/202/202 48/203/203 47/204/204
f 44/205/205 49/206/206 48/207/207
f 45/208/208 49/209/209 44/210/210
f 47/211/211 50/212/212 46/213/213
f 47/214/214 51/215/215 50/216/216
f 48/217/217 51/218/218 47/219/219
f 48/220/220 52/221/221 51/222/222
f 48/223/223 53/224/224 52/225/225
f 49/226/226 53/227/227 48/228/228
f 51/229/229 54/230/230 50/231/231
f 51/232/232 55/233/233 54/234/234
f 52/235/235 55/236/236 51/237/237
f 52/238/238 56/239/239 55/240/240
f 52/241/241 57/242/242 56/243/243
f 53/244/244 57/245/245 52/246/246
f 55/247/247 34/248/248 54/249/249
f 55/250/250 35/251/251 34/252/252
f 56/253/253 35/254/254 55/255/255
f 56/256/256 36/257/257 35/258/258
f 56/259/259 37/260/260 36/261/261
f 57/262/262 37/263/263 56/264/264
f 60/265/265 59/266/266 58/267/267
f 60/268/268 61/269/269 59/270/270
f 60/271/271 38/272/272 61/273/273
f 60/274/274 27/275/275 38/276/276
f 58/277/277 27/278/278 60/279/279
f 58/280/280 26/281/281 27/282/282
f 62/283/283 59/284/284 61/285/285
f 62/286/286 63/287/287 59/288/288
f 62/289/289 46/290/290 63/291/291
f 62/292/292 42/293/293 46/294/294
f 61/295/295 42/296/296 62/297/297
f 61/298/298 38/299/299 42/300/300
f 64/301/301 59/302/302 63/303/303
f 64/304/304 65/305/305 59/306/306
f 64/307/307 54/308/308 65/309/309
f 64/310/310 50/311/311 54/312/312
f 63/313/313 50/314/314 64/315/315
f 63/316/316 46/317/317 50/318/318
f 66/319/319 59/320/320 65/321/321
f 66/322/322 58/323/323 59/324/324
f 66/325/325 26/326/326 58/327/327
f 66/328/328 34/329/329 26/330/330
f 65/331/331 34/332/332 66/333/333
f 65/334/334 54/335/335 34/336/336
f 41/337/337 32/338/338 67/339/339
f 45/340/340 41/341/341 67/342/342
f 49/343/343 45/344/344 67/345/345
f 53/346/346 49/347/347 67/348/348
f 57/349/349 53/350/350 67/351/351
f 37/352/352 57/353/353 67/354/354
f 33/355/355 37/356/356 67/357/357
f 32/358/358 33/359/359 67/360/360
